{"title":"Hot Fuzz-AC3-5,1-DVDRiP[ENG]2007 ACB-Team","uid":5584453,"size":1162401378,"categoryP":"video","categoryS":"movies","magnet":"?xt=urn:btih:95fbdb6ee3af8df2e130d6512fe96f4a920dd85a&amp;dn=Hot+Fuzz-AC3-5%2C1-DVDRiP%5BENG%5D2007+ACB-Team&amp;tr=udp%3A%2F%2Ftracker.openbittorrent.com%3A80&amp;tr=udp%3A%2F%2Fopen.demonii.com%3A1337&amp;tr=udp%3A%2F%2Ftracker.coppersurfer.tk%3A6969&amp;tr=udp%3A%2F%2Fexodus.desync.com%3A6969","seeders":1,"leechers":0,"uploader":"ACB-Team.nl","files":-1,"time":1274655602,"description":"General\nComplete name                    : Hot Fuzz-AC3-5,1-DVDRiP[ENG]2007 ACB-Team.avi\nFormat                           : AVI\nFormat/Info                      : Audio Video Interleave\nFile size                        : 1.08 GiB\nDuration                         : 1h 55mn\nOverall bit rate                 : 1 338 Kbps\n\nVideo\nID                               : 0\nFormat                           : MPEG-4 Visual\nFormat profile                   : Simple@L3\nFormat settings, BVOP            : No\nFormat settings, QPel            : No\nFormat settings, GMC             : No warppoints\nFormat settings, Matrix          : Default (H.263)\nCodec ID                         : XVID\nCodec ID/Hint                    : XviD\nDuration                         : 1h 55mn\nBit rate                         : 1 198 Kbps\nWidth                            : 640 pixels\nHeight                           : 360 pixels\nDisplay aspect ratio             : 16:9\nFrame rate                       : 25.000 fps\nColor space                      : YUV\nChroma subsampling               : 4:2:0\nBit depth                        : 8 bits\nScan type                        : Progressive\nBits/(Pixel*Frame)               : 0.208\nStream size                      : 992 MiB (90%)\nWriting library                  : Magic0432\n\nAudio\nID                               : 1\nFormat                           : MPEG Audio\nFormat version                   : Version 1\nFormat profile                   : Layer 3\nMode                             : Joint stereo\nMode extension                   : MS Stereo\nCodec ID                         : 55\nCodec ID/Hint                    : MP3\nDuration                         : 1h 55mn\nBit rate mode                    : Constant\nBit rate                         : 128 Kbps\nChannel(s)                       : 6 channels\nSampling rate                    : 44.1 KHz\nStream size                      : 106 MiB (10%)\nAlignment                        : Aligned on interleaves\nInterleave, duration             : 26 ms (0.65 video frame)\nWriting library                  : LAME3.97\n\n\nVoor meer films met nederlandse ondertiteling kijk : www.acb-team.nl\n\n\n\n!! Dont hit and run please seed !!","torrent":{"xt":"urn:btih:95fbdb6ee3af8df2e130d6512fe96f4a920dd85a","amp;dn":"Hot+Fuzz-AC3-5%2C1-DVDRiP%5BENG%5D2007+ACB-Team","amp;tr":["udp%3A%2F%2Ftracker.openbittorrent.com%3A80","udp%3A%2F%2Fopen.demonii.com%3A1337","udp%3A%2F%2Ftracker.coppersurfer.tk%3A6969","udp%3A%2F%2Fexodus.desync.com%3A6969"],"infoHash":"95fbdb6ee3af8df2e130d6512fe96f4a920dd85a","infoHashBuffer":{"type":"Buffer","data":[149,251,219,110,227,175,141,242,225,48,214,81,47,233,111,74,146,13,216,90]},"announce":[],"urlList":[]}}